<svg version="1.1" id="Layer_1" xmlns="http://www.w3.org/2000/svg" xmlns:xlink="http://www.w3.org/1999/xlink" x="0px" y="0px"
	 width="100%" viewBox="0 0 720 826" enable-background="new 0 0 720 826" xml:space="preserve">
<path fill="#000000" opacity="0.000000" stroke="none" 
	d="
M721.000000,317.000000 
	C721.000000,487.333344 721.000000,657.166687 721.000000,827.000000 
	C481.000000,827.000000 241.000000,827.000000 1.000000,827.000000 
	C1.000000,551.666687 1.000000,276.333344 1.000000,1.000000 
	C241.000000,1.000000 481.000000,1.000000 721.000000,1.000000 
	C721.000000,106.166664 721.000000,211.333328 721.000000,317.000000 
M191.984924,138.973114 
	C191.984924,138.973114 191.875870,138.994308 192.027054,139.559052 
	C192.354080,139.743469 192.681091,139.927872 192.947784,140.007156 
	C192.947784,140.007156 192.842865,140.067856 193.036713,140.731766 
	C195.406281,142.788025 197.775833,144.844299 200.577347,147.120270 
	C200.844223,147.325134 201.020813,147.590179 201.038834,148.621536 
	C203.664948,151.133682 206.291077,153.645828 208.917969,156.082657 
	C208.917969,156.082657 208.842667,156.084366 209.000214,156.760391 
	C211.643829,158.891296 214.287430,161.022202 217.239594,163.768875 
	C223.852295,170.554993 230.453934,177.351929 237.079956,184.125031 
	C252.363159,199.747498 267.689514,215.328094 282.895813,231.024979 
	C284.281219,232.455078 284.927643,234.601089 285.296936,236.552353 
	C283.810394,237.679169 282.323822,238.806000 280.943054,239.935623 
	C280.943054,239.935623 280.944061,239.829788 280.226562,239.955399 
	C276.262207,242.463287 272.247742,244.896912 268.361145,247.519928 
	C267.027283,248.420120 266.013000,249.793839 264.233063,251.254745 
	C262.954102,251.958679 261.618347,252.576828 260.405396,253.380417 
	C252.460297,258.644135 244.506149,263.895721 236.629456,269.260681 
	C232.664917,271.960999 228.856812,274.891022 224.250992,277.914276 
	C221.781860,279.583801 219.312744,281.253357 216.929199,282.924561 
	C216.929199,282.924561 216.928711,282.838989 216.224091,282.961029 
	C213.778885,284.620728 211.333679,286.280426 208.957138,287.951813 
	C208.957138,287.951813 208.961731,287.882324 208.275101,288.046509 
	C205.763275,290.046356 203.251450,292.046234 200.143311,294.340729 
	C196.610672,296.768158 193.078033,299.195618 188.572296,302.291748 
	C193.252136,305.845428 197.190582,308.522095 200.759125,311.624237 
	C205.382278,315.643188 209.587753,320.141083 214.190353,324.185455 
	C225.062546,333.738953 236.144974,343.053864 246.984039,352.644196 
	C254.509125,359.302307 261.575256,366.485657 269.191498,373.032959 
	C284.525787,386.214996 300.125336,399.088043 315.537140,412.180756 
	C317.949463,414.230103 319.949738,416.764465 321.994629,419.970917 
	C322.275513,429.174469 322.522644,438.379211 322.844330,447.581329 
	C323.516113,466.796478 324.278870,486.008514 324.905487,505.225067 
	C325.381073,519.810547 325.703949,534.401001 325.959167,549.904968 
	C327.003296,563.271118 328.047424,576.637268 328.964417,590.932678 
	C330.742645,631.821655 332.470245,672.713074 334.396149,713.595093 
	C334.548584,716.831482 336.077271,720.002930 336.985168,723.586792 
	C336.985168,723.586792 337.116669,723.946167 336.983459,724.846985 
	C338.078064,730.275879 338.996216,735.749390 340.352509,741.112122 
	C340.910675,743.319031 342.257996,745.679077 345.819214,742.720886 
	C347.120026,729.455322 348.420837,716.189819 349.919281,702.102661 
	C350.189331,696.644226 350.439667,691.184814 350.733459,685.727600 
	C351.427704,672.830566 352.142639,659.934509 353.249634,646.282471 
	C353.546509,643.212769 353.843414,640.143127 354.784332,636.662537 
	C356.891083,611.094360 358.997803,585.526123 360.996277,560.036926 
	C360.996277,560.036926 361.075470,560.145142 361.769653,559.809692 
	C361.983704,559.027222 362.335114,558.254639 362.391998,557.460938 
	C364.646301,526.000366 366.873901,494.537872 369.731659,462.705475 
	C371.135406,460.246460 372.852936,459.311951 375.670502,460.852081 
	C378.591309,462.448608 381.726471,463.653046 384.989288,465.695465 
	C387.357697,467.089325 389.726105,468.483185 392.539673,470.087952 
	C392.816345,470.286530 393.009308,470.547089 393.073364,471.582214 
	C395.710754,473.119537 398.348114,474.656891 400.975800,476.055634 
	C400.975800,476.055634 400.837250,476.066589 400.992523,476.745636 
	C403.654083,478.556335 406.315674,480.367065 408.967224,482.055389 
	C408.967224,482.055389 408.844940,482.066711 409.100891,482.704773 
	C411.726959,484.193481 414.353027,485.682220 417.293762,487.773499 
	C437.241058,500.727386 457.102448,513.797546 475.911224,530.423279 
	C471.630615,534.307312 467.879639,537.710815 463.409271,541.039307 
	C461.217407,543.002319 459.025574,544.965271 456.954376,546.938110 
	C456.954376,546.938110 456.962555,546.817261 456.276855,546.996887 
	C453.772400,549.323914 451.267914,551.651001 448.165070,554.249817 
	C446.670380,555.510437 445.235504,556.851440 443.670197,558.017273 
	C438.162140,562.119812 432.540894,566.073242 427.096466,570.257446 
	C423.213287,573.241638 419.644592,576.635132 415.760925,579.618713 
	C405.917694,587.180664 395.859802,594.468262 386.148041,602.192871 
	C383.395142,604.382507 381.302185,607.339905 384.643036,611.356873 
	C393.318329,621.787903 401.387909,632.731445 410.241760,643.002808 
	C419.128265,653.312073 428.621735,663.101929 437.938751,673.035400 
	C446.880798,682.569092 455.960999,691.973083 464.938049,701.474182 
	C475.540649,712.695801 486.050079,724.005798 496.696106,735.185852 
	C501.503296,740.234131 506.536346,745.067749 511.478912,749.986694 
	C521.580627,760.040161 531.642212,770.135315 541.877075,780.051514 
	C542.823242,780.968201 544.892883,780.725342 546.440857,781.020874 
	C545.917969,779.678772 545.395081,778.336609 545.003479,776.258972 
	C542.343567,772.418884 539.683594,768.578796 537.011353,764.402710 
	C537.011353,764.402710 536.857300,764.103943 536.897278,763.484314 
	C536.414368,762.841125 535.931458,762.197998 535.433533,761.647522 
	C535.433533,761.647522 535.527405,761.650757 535.259277,761.002869 
	C533.189453,758.609924 531.119690,756.217041 528.863525,753.164734 
	C507.538361,724.797729 486.213196,696.430725 464.975891,667.336304 
	C462.340790,663.835083 459.705688,660.333923 457.057526,656.960632 
	C457.057526,656.960632 457.185638,656.972290 457.038269,656.255127 
	C454.364044,652.749695 451.689819,649.244324 448.720367,645.128601 
	C443.434296,637.446106 438.148224,629.763550 432.999756,621.292908 
	C431.683289,616.200623 426.889221,611.083862 433.027618,606.006470 
	C433.027618,606.006470 432.989838,606.086121 433.542633,605.945618 
	C433.726074,605.628662 433.909515,605.311768 433.990295,604.996216 
	C433.990295,604.996216 433.991425,605.098877 434.555481,604.961121 
	C434.742554,604.637390 434.929657,604.313599 434.994171,603.982605 
	C434.994171,603.982605 434.986542,604.105103 435.558197,603.964417 
	C435.783508,603.649963 436.008850,603.335510 436.850586,602.722412 
	C443.361603,598.507324 449.920502,594.363892 456.368744,590.054871 
	C461.664154,586.516113 466.828033,582.780457 472.822266,579.050354 
	C475.638458,577.374878 478.454681,575.699402 481.571472,574.028259 
	C481.571472,574.028259 481.844238,573.901917 482.586182,573.990723 
	C484.779938,572.342285 486.973694,570.693848 489.782104,568.735291 
	C497.529633,563.903687 505.277191,559.072083 513.766357,554.074036 
	C516.217896,552.738037 518.669434,551.401978 521.049622,550.056824 
	C521.049622,550.056824 521.042053,550.128357 521.753296,549.996460 
	C524.247498,548.003845 526.741699,546.011230 529.550537,544.014526 
	C529.550537,544.014526 529.838379,543.887634 530.572998,544.002075 
	C537.608765,539.738464 537.097656,534.638367 529.056335,528.944214 
	C529.056335,528.944214 529.137268,528.942200 528.922241,528.294556 
	C526.290466,526.135193 523.658752,523.975769 520.755127,521.203857 
	C517.264282,518.374695 513.684631,515.647217 510.302948,512.693176 
	C504.908813,507.981171 499.753235,502.992401 494.293854,498.359894 
	C490.037811,494.748535 485.307587,491.692749 481.083527,488.047699 
	C474.363647,482.248962 467.996399,476.041260 461.270752,470.249573 
	C457.411407,466.926147 453.054382,464.188232 449.069458,461.001556 
	C438.292206,452.383148 427.594116,443.665710 417.003326,434.315674 
	C416.142029,433.356598 415.280731,432.397522 414.376801,431.565491 
	C414.376801,431.565491 414.478760,431.478577 414.077332,430.964294 
	C412.401276,429.930969 410.725250,428.897644 409.053406,427.939941 
	C409.053406,427.939941 409.128937,427.934021 408.856323,427.310944 
	C406.244934,425.807190 403.633514,424.303436 401.004089,422.432983 
	C401.004089,422.432983 400.854309,422.097748 400.861877,421.405975 
	C398.247375,419.536438 395.632874,417.666931 393.025574,415.942810 
	C393.025574,415.942810 393.170868,415.934235 392.984650,415.267059 
	C390.344879,413.119720 387.705139,410.972382 384.981873,408.930389 
	C384.981873,408.930389 385.087067,409.014038 384.951874,408.447693 
	C384.627411,408.256592 384.302917,408.065491 383.981781,408.023621 
	C383.981781,408.023621 384.131073,408.020905 383.961060,407.455994 
	C383.633240,407.262451 383.305450,407.068939 383.015656,407.030579 
	C383.015656,407.030579 383.170929,406.993011 382.965485,406.458038 
	C382.634247,406.346344 382.303009,406.234619 381.357697,405.830750 
	C378.516907,402.893951 375.676117,399.957153 372.940582,396.164490 
	C372.629517,389.486694 372.179993,382.811920 372.033905,376.130524 
	C371.625427,357.446747 371.386383,338.759338 370.994110,320.075165 
	C370.740997,308.017853 370.350861,295.963226 369.959351,283.909454 
	C369.937042,283.222290 369.346130,282.553650 369.012238,281.239105 
	C369.287811,280.478516 369.563385,279.717926 369.972565,278.114197 
	C369.648712,276.366394 369.075714,274.623993 369.037933,272.870026 
	C368.335388,240.242294 367.997833,207.603607 366.962036,174.986969 
	C365.862854,140.373871 364.134583,105.780495 362.589081,71.182610 
	C362.508057,69.368797 361.567871,67.593361 361.001404,65.389671 
	C361.001404,65.389671 360.862793,65.002525 361.004669,64.085495 
	C360.041077,52.947674 359.097900,41.808014 358.095215,30.673714 
	C357.913055,28.650753 357.718018,26.569941 357.062897,24.677126 
	C356.794464,23.901594 355.322571,23.457636 354.312866,23.112020 
	C354.155121,23.058029 353.540802,24.337889 353.009216,25.416029 
	C353.009216,25.416029 352.948212,25.846197 352.220612,26.015726 
	C351.883087,26.340853 351.292389,26.632607 351.244537,26.995914 
	C349.178894,42.667881 347.161469,58.346195 345.008484,74.413834 
	C345.008484,74.413834 344.957733,74.821770 344.268372,74.983711 
	C341.432251,80.455765 336.763153,83.386307 330.924316,84.850525 
	C330.104401,85.056145 329.525879,86.224449 328.022491,86.948608 
	C324.408142,88.098000 320.801575,89.272667 317.176910,90.388504 
	C314.454987,91.226440 311.709839,91.988800 308.217468,92.953323 
	C307.062531,93.294662 305.907562,93.636002 304.411041,93.965775 
	C304.411041,93.965775 304.094727,94.095161 303.242889,93.976372 
	C295.945435,95.803802 288.602631,97.470314 281.365234,99.510712 
	C275.799286,101.079880 270.366028,103.119576 264.073730,104.995361 
	C259.074066,106.368874 254.074402,107.742386 248.335815,108.982101 
	C247.482010,109.309692 246.628189,109.637276 245.406769,109.972031 
	C245.406769,109.972031 245.060028,110.094383 244.322372,109.964539 
	C243.472977,110.301880 242.623581,110.639221 241.396805,110.988258 
	C241.396805,110.988258 241.044800,111.124794 240.181580,110.994621 
	C238.855713,111.070869 237.477722,110.939377 236.212433,111.256981 
	C227.799789,113.368698 219.370987,115.434357 211.027893,117.798889 
	C204.577835,119.626923 198.244995,121.868500 191.981644,123.977158 
	C191.981644,123.977158 192.032028,123.855324 191.361893,123.947502 
	C190.837433,124.286942 190.312988,124.626389 189.411713,124.971077 
	C189.411713,124.971077 189.053879,125.089241 188.390656,124.967804 
	C187.867798,125.294914 187.344940,125.622032 186.079285,125.964973 
	C182.132416,127.181496 182.011658,129.034454 185.016617,131.632141 
	C186.498352,132.913071 187.748413,134.461975 189.052017,136.480331 
	C189.364349,136.697327 189.676697,136.914337 190.019669,137.023987 
	C190.019669,137.023987 189.912354,136.993240 190.052429,137.549286 
	C190.371796,137.735733 190.691177,137.922180 191.010162,137.989380 
	C191.010162,137.989380 190.890900,137.989441 191.045303,138.541138 
	C191.365677,138.721451 191.686050,138.901779 191.984924,138.973114 
z"/>
<path fill="#8FDA40" opacity="1.000000" stroke="none" 
	d="
M241.044800,111.124802 
	C241.044800,111.124794 241.396805,110.988258 241.935486,110.984131 
	C243.336105,110.684799 244.198074,110.389587 245.060028,110.094376 
	C245.060028,110.094383 245.406769,109.972031 245.940125,109.971497 
	C247.340561,109.685944 248.207642,109.400925 249.074738,109.115906 
	C254.074402,107.742386 259.074066,106.368874 264.889282,104.987503 
	C277.858215,101.853271 290.015778,98.743103 302.154297,95.560120 
	C302.879303,95.370003 303.451447,94.596962 304.094727,94.095169 
	C304.094727,94.095161 304.411041,93.965775 304.966003,93.984833 
	C306.672333,93.597527 307.823700,93.191170 308.975037,92.784805 
	C311.709839,91.988800 314.454987,91.226440 317.176910,90.388504 
	C320.801575,89.272667 324.408142,88.098000 328.817291,86.932129 
	C336.319702,84.904930 343.513672,83.511299 344.957733,74.821770 
	C344.957733,74.821770 345.008484,74.413834 345.267578,73.887894 
	C348.000519,57.523369 350.474365,41.684784 352.948181,25.846195 
	C352.948212,25.846197 353.009216,25.416029 353.431854,25.260555 
	C355.232300,29.445793 357.183868,33.698387 357.866882,38.145802 
	C359.233032,47.041599 359.904510,56.044086 360.862793,65.002525 
	C360.862793,65.002525 361.001404,65.389671 360.992737,66.075439 
	C361.640228,79.705757 362.377594,92.646835 362.932648,105.595726 
	C363.673096,122.869476 364.320160,140.147629 364.919159,157.426941 
	C365.645142,178.368774 366.362946,199.311523 366.927338,220.258102 
	C367.411377,238.222260 367.630890,256.193542 368.109375,274.157867 
	C368.152374,275.771912 369.237701,277.358185 369.838989,278.957367 
	C369.563385,279.717926 369.287811,280.478516 369.002197,282.034607 
	C369.321167,293.448578 369.773285,304.064972 369.954590,314.686005 
	C370.382843,339.770996 370.636749,364.859039 371.107941,389.943085 
	C371.152466,392.312164 372.234802,394.661743 372.835327,397.020355 
	C375.676117,399.957153 378.516907,402.893951 381.843384,406.149292 
	C382.599884,406.658569 382.880493,406.833649 383.170929,406.993011 
	C383.170929,406.993011 383.015656,407.030579 383.177948,407.153625 
	C383.603851,407.524719 383.867462,407.772827 384.131073,408.020905 
	C384.131073,408.020905 383.981781,408.023621 384.156372,408.147003 
	C384.582977,408.518280 384.835022,408.766174 385.087067,409.014038 
	C385.087067,409.014038 384.981873,408.930389 385.073669,409.224091 
	C387.833923,411.656616 390.502380,413.795410 393.170868,415.934235 
	C393.170868,415.934235 393.025574,415.942810 393.170715,416.183411 
	C395.828644,418.315277 398.341492,420.206512 400.854309,422.097748 
	C400.854309,422.097748 401.004089,422.432983 401.179443,422.921387 
	C403.946167,424.917908 406.537567,426.425964 409.128937,427.934021 
	C409.128937,427.934021 409.053406,427.939941 409.113190,428.257507 
	C410.941589,429.542877 412.710175,430.510712 414.478760,431.478577 
	C414.478760,431.478577 414.376801,431.565491 414.420410,431.829590 
	C415.264191,433.058319 416.064392,434.022949 416.864624,434.987549 
	C427.594116,443.665710 438.292206,452.383148 449.069458,461.001556 
	C453.054382,464.188232 457.411407,466.926147 461.270752,470.249573 
	C467.996399,476.041260 474.363647,482.248962 481.083527,488.047699 
	C485.307587,491.692749 490.037811,494.748535 494.293854,498.359894 
	C499.753235,502.992401 504.908813,507.981171 510.302948,512.693176 
	C513.684631,515.647217 517.264282,518.374695 521.027954,521.825317 
	C523.912964,524.611877 526.525085,526.777039 529.137268,528.942200 
	C529.137268,528.942200 529.056335,528.944214 529.095947,529.257690 
	C532.390259,534.195007 536.026672,538.800171 529.838379,543.887634 
	C529.838379,543.887634 529.550537,544.014526 529.056885,544.139526 
	C526.056152,546.219177 523.549133,548.173767 521.042114,550.128418 
	C521.042053,550.128357 521.049622,550.056824 520.700989,550.059204 
	C517.909790,551.454529 515.467285,552.847534 513.024719,554.240479 
	C505.277191,559.072083 497.529633,563.903687 489.123047,568.942261 
	C486.257385,570.733459 484.050812,572.317688 481.844238,573.901855 
	C481.844238,573.901917 481.571472,574.028259 481.048279,574.072876 
	C477.700134,575.789062 474.875183,577.460632 472.050232,579.132141 
	C466.828033,582.780457 461.664154,586.516113 456.368744,590.054871 
	C449.920502,594.363892 443.361603,598.507324 436.313660,603.030029 
	C435.513306,603.593506 435.249939,603.849304 434.986572,604.105103 
	C434.986542,604.105103 434.994171,603.982605 434.853638,604.155334 
	C434.472565,604.585022 434.231995,604.841919 433.991425,605.098877 
	C433.991425,605.098877 433.990295,604.996216 433.841125,605.157104 
	C433.457947,605.574036 433.223877,605.830078 432.989807,606.086121 
	C432.989838,606.086121 433.027618,606.006470 432.708374,606.075562 
	C428.418945,607.693359 427.171600,610.638428 428.692444,614.445862 
	C429.760376,617.119507 431.450104,619.544861 432.862152,622.081055 
	C438.148224,629.763550 443.434296,637.446106 448.926147,645.794922 
	C451.816467,649.964905 454.501068,653.468567 457.185669,656.972290 
	C457.185638,656.972290 457.057526,656.960632 457.111755,657.257446 
	C459.739990,661.057373 462.313995,664.560547 464.888031,668.063721 
	C486.213196,696.430725 507.538361,724.797729 528.999512,753.854614 
	C531.266113,756.913208 533.396729,759.281982 535.527405,761.650757 
	C535.527405,761.650757 535.433533,761.647522 535.408936,761.922546 
	C535.875366,762.833008 536.366333,763.468506 536.857300,764.103943 
	C536.857300,764.103943 537.011353,764.402710 537.060913,764.945251 
	C539.697693,769.323364 542.284912,773.158936 544.872192,776.994507 
	C545.395081,778.336609 545.917969,779.678772 546.440857,781.020874 
	C544.892883,780.725342 542.823242,780.968201 541.877075,780.051514 
	C531.642212,770.135315 521.580627,760.040161 511.478912,749.986694 
	C506.536346,745.067749 501.503296,740.234131 496.696106,735.185852 
	C486.050079,724.005798 475.540649,712.695801 464.938049,701.474182 
	C455.960999,691.973083 446.880798,682.569092 437.938751,673.035400 
	C428.621735,663.101929 419.128265,653.312073 410.241760,643.002808 
	C401.387909,632.731445 393.318329,621.787903 384.643036,611.356873 
	C381.302185,607.339905 383.395142,604.382507 386.148041,602.192871 
	C395.859802,594.468262 405.917694,587.180664 415.760925,579.618713 
	C419.644592,576.635132 423.213287,573.241638 427.096466,570.257446 
	C432.540894,566.073242 438.162140,562.119812 443.670197,558.017273 
	C445.235504,556.851440 446.670380,555.510437 448.799011,553.993835 
	C451.942810,551.430969 454.452698,549.124146 456.962555,546.817261 
	C456.962555,546.817261 456.954376,546.938110 457.246826,546.897217 
	C459.735748,544.942261 461.932190,543.028259 464.128662,541.114258 
	C467.879639,537.710815 471.630615,534.307312 475.911224,530.423279 
	C457.102448,513.797546 437.241058,500.727386 416.974640,487.167358 
	C414.051971,485.063049 411.448456,483.564880 408.844940,482.066711 
	C408.844940,482.066711 408.967224,482.055389 408.832092,481.798584 
	C406.077026,479.716705 403.457123,477.891663 400.837250,476.066589 
	C400.837250,476.066589 400.975800,476.055634 400.813049,475.819092 
	C398.139740,474.011566 395.629150,472.440613 393.118561,470.869659 
	C393.009308,470.547089 392.816345,470.286530 392.176025,469.677704 
	C389.464203,467.854645 387.116058,466.441803 384.767883,465.028992 
	C381.726471,463.653046 378.591309,462.448608 375.670502,460.852081 
	C372.852936,459.311951 371.135406,460.246460 369.186218,463.183350 
	C367.425873,473.327698 365.971924,482.971924 365.067657,492.667389 
	C364.267792,501.243530 364.118713,509.879059 363.613129,518.484314 
	C362.797150,532.372986 361.924286,546.258362 361.075470,560.145142 
	C361.075470,560.145142 360.996277,560.036926 360.833527,560.328369 
	C360.103973,564.546143 359.387238,568.457581 358.996399,572.401306 
	C357.328217,589.233398 355.661896,606.066895 354.210297,622.918396 
	C353.806671,627.604004 354.143280,632.353333 354.140289,637.073425 
	C353.843414,640.143127 353.546509,643.212769 352.867188,647.016052 
	C351.981323,652.673523 351.417480,657.592041 350.986542,662.522278 
	C349.979950,674.037415 349.037231,685.558044 348.053162,697.533203 
	C347.670197,706.067017 347.561646,714.166870 346.856140,722.214355 
	C346.252960,729.094971 344.964935,735.915466 343.680969,742.605591 
	C342.576843,740.871582 341.531525,739.369324 341.012421,737.703247 
	C339.595184,733.154541 338.399872,728.536621 337.116669,723.946167 
	C337.116669,723.946167 336.985168,723.586792 336.986084,722.949219 
	C334.633240,678.193237 332.279480,634.074829 329.945618,589.502075 
	C329.315002,577.398315 328.664459,565.748962 328.018005,553.692017 
	C328.020782,552.467041 328.019409,551.649597 328.019836,550.549805 
	C328.022186,549.892883 328.022705,549.518250 328.021484,548.666138 
	C327.029694,521.992676 325.963043,495.799469 325.079315,469.600037 
	C324.575653,454.667847 324.433624,439.723511 323.953033,424.790314 
	C323.891144,422.867615 322.770660,420.978973 322.140533,419.074554 
	C319.949738,416.764465 317.949463,414.230103 315.537140,412.180756 
	C300.125336,399.088043 284.525787,386.214996 269.191498,373.032959 
	C261.575256,366.485657 254.509125,359.302307 246.984039,352.644196 
	C236.144974,343.053864 225.062546,333.738953 214.190353,324.185455 
	C209.587753,320.141083 205.382278,315.643188 200.759125,311.624237 
	C197.190582,308.522095 193.252136,305.845428 188.572296,302.291748 
	C193.078033,299.195618 196.610672,296.768158 200.808517,294.129272 
	C203.969727,291.905975 206.465729,289.894165 208.961731,287.882324 
	C208.961731,287.882324 208.957138,287.951813 209.303986,287.947937 
	C212.076797,286.242371 214.502747,284.540680 216.928711,282.838989 
	C216.928711,282.838989 216.929199,282.924561 217.247833,282.891479 
	C220.036987,281.144684 222.507477,279.430939 224.977966,277.717194 
	C228.856812,274.891022 232.664917,271.960999 236.629456,269.260681 
	C244.506149,263.895721 252.460297,258.644135 260.405396,253.380417 
	C261.618347,252.576828 262.954102,251.958679 264.897156,251.051422 
	C270.688843,247.175323 275.816437,243.502548 280.944061,239.829788 
	C280.944061,239.829788 280.943054,239.935623 281.240051,239.903992 
	C282.997101,238.719803 284.457153,237.567230 285.917206,236.414642 
	C284.927643,234.601089 284.281219,232.455078 282.895813,231.024979 
	C267.689514,215.328094 252.363159,199.747498 237.079956,184.125031 
	C230.453934,177.351929 223.852295,170.554993 216.936066,163.158829 
	C214.035919,160.393982 211.439285,158.239182 208.842667,156.084366 
	C208.842667,156.084366 208.917969,156.082657 208.865723,155.774017 
	C206.244690,152.948730 203.675903,150.432053 201.107101,147.915390 
	C201.020813,147.590179 200.844223,147.325134 200.255707,146.684418 
	C197.570343,144.188339 195.206604,142.128098 192.842865,140.067856 
	C192.842865,140.067856 192.947784,140.007156 192.812500,139.851654 
	C192.410110,139.462189 192.142990,139.228256 191.875870,138.994308 
	C191.875870,138.994308 191.984924,138.973114 191.825302,138.830505 
	C191.407425,138.455078 191.149155,138.222260 190.890900,137.989441 
	C190.890900,137.989441 191.010162,137.989380 190.845032,137.847031 
	C190.424042,137.467545 190.168198,137.230392 189.912354,136.993240 
	C189.912354,136.993240 190.019669,137.023987 189.881866,136.854370 
	C189.530472,136.419724 189.316879,136.154678 189.103302,135.889633 
	C187.748413,134.461975 186.498352,132.913071 185.016617,131.632141 
	C182.011658,129.034454 182.132416,127.181496 186.752106,125.914062 
	C187.967926,125.605186 188.510895,125.347214 189.053879,125.089249 
	C189.053879,125.089241 189.411713,124.971077 189.916199,124.911896 
	C190.957809,124.520241 191.494919,124.187782 192.032028,123.855316 
	C192.032028,123.855324 191.981644,123.977158 192.347168,123.974792 
	C204.589432,121.008446 216.482712,118.108444 228.334198,115.046638 
	C232.622574,113.938744 236.810852,112.443367 241.044800,111.124802 
M242.347610,314.321014 
	C242.632080,314.539612 242.916550,314.758240 243.901642,314.980194 
	C247.609482,317.577637 251.317337,320.175079 255.462036,323.216919 
	C256.020813,323.461792 256.579620,323.706665 257.040131,323.948425 
	C257.040131,323.948425 257.044525,323.850159 257.210846,324.529602 
	C259.853271,325.996307 262.495697,327.463013 265.032928,328.948944 
	C265.032928,328.948944 265.014984,328.843475 265.297485,329.478027 
	C267.820099,331.033081 270.342743,332.588104 273.110352,334.576324 
	C273.313782,334.858307 273.584351,335.040680 274.461456,335.468048 
	C275.091339,335.487305 275.721252,335.506592 276.300232,335.438293 
	C276.300232,335.438293 276.389221,335.389923 276.556519,336.099243 
	C277.531219,336.504669 278.505951,336.910095 279.161835,337.977722 
	C279.272827,337.758575 279.383789,337.539398 279.676300,337.924896 
	C280.163422,338.268005 280.650574,338.611115 281.026611,338.965179 
	C281.026611,338.965179 281.016571,338.854004 281.305176,339.488007 
	C283.916016,340.967804 286.526825,342.447632 289.033295,343.949005 
	C289.033295,343.949005 289.013031,343.844360 289.297424,344.431335 
	C290.194489,344.969269 291.091583,345.507202 292.370422,346.598938 
	C293.966888,347.372253 295.563354,348.145569 297.064972,348.921448 
	C297.064972,348.921448 297.064575,348.826599 297.247498,349.492371 
	C299.926544,350.989990 302.605591,352.487640 305.910950,354.313904 
	C310.670380,356.533905 315.429810,358.753906 320.983734,361.344513 
	C321.655762,358.371735 322.260834,355.695129 323.559235,352.666626 
	C324.041077,350.833008 324.800964,349.022400 324.954865,347.161652 
	C325.512878,340.414368 325.834686,333.647980 326.306244,326.893005 
	C327.168365,314.543335 328.073700,302.196655 329.013763,289.409210 
	C329.013763,289.409210 329.143494,288.985962 329.513489,288.287689 
	C330.643463,274.763428 331.867798,261.245728 332.808746,247.708313 
	C332.962250,245.499847 332.315826,242.941147 331.203064,241.031464 
	C330.293243,239.470016 328.901306,236.318710 325.357635,239.470901 
	C322.920166,240.498230 320.140594,241.075943 318.101685,242.627167 
	C306.391815,251.536041 294.892212,260.720581 283.254700,269.725586 
	C269.284241,280.535828 255.246994,291.259766 240.784042,302.474609 
	C240.571716,303.064667 240.359390,303.654694 240.145920,304.145844 
	C240.145920,304.145844 240.244797,304.149048 239.529007,304.193573 
	C235.234985,307.401764 235.171936,308.718689 239.115280,310.886108 
	C239.115280,310.886108 239.115860,310.792633 239.234528,311.434753 
	C239.871185,311.939362 240.507858,312.443970 241.054337,313.008789 
	C241.054337,313.008789 240.994263,312.918518 241.314972,313.323395 
	C241.571686,313.551300 241.828400,313.779175 241.993790,314.011719 
	C241.993790,314.011719 241.988861,313.920410 242.347610,314.321014 
M242.252533,165.311432 
	C242.463150,165.574875 242.673752,165.838318 243.250763,166.684677 
	C247.253616,170.011505 251.331345,173.252945 255.243134,176.683609 
	C262.503479,183.050949 269.641724,189.557297 276.880249,195.949768 
	C281.160278,199.729553 285.535065,203.401993 290.138031,207.734314 
	C292.482574,209.464890 294.827087,211.195465 297.036285,212.936417 
	C297.036285,212.936417 297.027405,212.800949 297.322601,213.430862 
	C299.933350,215.265137 302.544067,217.099411 305.041565,218.999222 
	C305.041565,218.999222 304.976257,218.885818 305.446899,219.312302 
	C306.035461,219.534821 306.624054,219.757355 307.616577,220.088425 
	C307.874451,220.249573 308.011749,220.481964 308.366913,221.234314 
	C308.649323,221.479416 308.931732,221.724518 309.839569,221.956055 
	C310.543518,222.338501 311.247467,222.720947 312.427673,223.466034 
	C312.998657,223.625336 313.569641,223.784622 314.011566,223.999817 
	C314.011566,223.999817 313.955780,223.870697 314.496429,224.304810 
	C315.377380,224.514191 316.258362,224.723557 317.042267,225.015015 
	C317.042267,225.015015 316.959991,224.918121 317.573486,225.309662 
	C322.946259,226.103104 326.761505,224.294128 329.009766,219.478119 
	C329.009766,219.478119 329.120789,219.048553 329.591583,218.522476 
	C330.616974,215.751602 332.262512,213.047028 332.566986,210.199081 
	C334.530304,191.835281 336.200470,173.440140 337.997559,154.106689 
	C338.005524,149.625977 338.158325,145.139496 337.979675,140.666229 
	C337.810211,136.421906 337.293610,132.191422 337.046967,128.045776 
	C337.046967,128.045776 336.956696,128.163605 336.647614,127.445251 
	C331.003693,124.281982 325.498505,126.388237 319.597351,128.011215 
	C319.597351,128.011215 319.197174,128.029434 318.398712,127.995819 
	C316.919006,128.364700 315.439301,128.733582 314.034332,128.999207 
	C314.034332,128.999207 314.137512,129.074036 313.349915,129.016510 
	C311.885376,129.382248 310.420837,129.747986 309.017792,130.003510 
	C309.017792,130.003510 309.127930,130.065170 308.248077,130.020691 
	C291.181519,133.628983 274.114960,137.237259 256.326630,141.175568 
	C248.592789,143.134964 240.858963,145.094345 232.795288,147.443298 
	C232.578430,147.708466 232.361557,147.973633 232.554031,148.175552 
	C232.554031,148.175552 232.621109,148.584274 231.904892,148.670609 
	C228.064713,151.851166 230.788223,153.888016 233.053253,155.966446 
	C233.053253,155.966446 233.070953,155.840836 233.151459,156.541382 
	C235.819458,159.004929 238.487457,161.468460 241.056046,163.994324 
	C241.056046,163.994324 240.994049,163.894714 241.319580,164.301682 
	C241.575363,164.535370 241.831161,164.769043 241.982834,164.967514 
	C241.982834,164.967514 242.017960,164.863358 242.252533,165.311432 
z"/>
<path fill="#9CD55E" opacity="1.000000" stroke="none" 
	d="
M369.905762,278.535767 
	C369.237701,277.358185 368.152374,275.771912 368.109375,274.157867 
	C367.630890,256.193542 367.411377,238.222260 366.927338,220.258102 
	C366.362946,199.311523 365.645142,178.368774 364.919159,157.426941 
	C364.320160,140.147629 363.673096,122.869476 362.932648,105.595726 
	C362.377594,92.646835 361.640228,79.705757 361.005859,66.280624 
	C361.567871,67.593361 362.508057,69.368797 362.589081,71.182610 
	C364.134583,105.780495 365.862854,140.373871 366.962036,174.986969 
	C367.997833,207.603607 368.335388,240.242294 369.037933,272.870026 
	C369.075714,274.623993 369.648712,276.366394 369.905762,278.535767 
z"/>
<path fill="#9AD15D" opacity="1.000000" stroke="none" 
	d="
M329.925690,589.956421 
	C332.279480,634.074829 334.633240,678.193237 336.976685,722.758118 
	C336.077271,720.002930 334.548584,716.831482 334.396149,713.595093 
	C332.470245,672.713074 330.742645,631.821655 329.236450,590.454834 
	C329.508484,589.977051 329.925690,589.956421 329.925690,589.956421 
z"/>
<path fill="#A9E964" opacity="1.000000" stroke="none" 
	d="
M322.067566,419.522736 
	C322.770660,420.978973 323.891144,422.867615 323.953033,424.790314 
	C324.433624,439.723511 324.575653,454.667847 325.079315,469.600037 
	C325.963043,495.799469 327.029694,521.992676 327.698486,548.656433 
	C326.949799,549.079285 326.522278,549.034241 326.094788,548.989258 
	C325.703949,534.401001 325.381073,519.810547 324.905487,505.225067 
	C324.278870,486.008514 323.516113,466.796478 322.844330,447.581329 
	C322.522644,438.379211 322.275513,429.174469 322.067566,419.522736 
z"/>
<path fill="#9AD15D" opacity="1.000000" stroke="none" 
	d="
M361.422546,559.977417 
	C361.924286,546.258362 362.797150,532.372986 363.613129,518.484314 
	C364.118713,509.879059 364.267792,501.243530 365.067657,492.667389 
	C365.971924,482.971924 367.425873,473.327698 368.872864,463.368408 
	C366.873901,494.537872 364.646301,526.000366 362.391998,557.460938 
	C362.335114,558.254639 361.983704,559.027222 361.422546,559.977417 
z"/>
<path fill="#9AD15D" opacity="1.000000" stroke="none" 
	d="
M354.462311,636.867981 
	C354.143280,632.353333 353.806671,627.604004 354.210297,622.918396 
	C355.661896,606.066895 357.328217,589.233398 358.996399,572.401306 
	C359.387238,568.457581 360.103973,564.546143 360.887665,560.288879 
	C358.997803,585.526123 356.891083,611.094360 354.462311,636.867981 
z"/>
<path fill="#A9E964" opacity="1.000000" stroke="none" 
	d="
M372.887939,396.592407 
	C372.234802,394.661743 371.152466,392.312164 371.107941,389.943085 
	C370.636749,364.859039 370.382843,339.770996 369.954590,314.686005 
	C369.773285,304.064972 369.321167,293.448578 369.005981,282.353210 
	C369.346130,282.553650 369.937042,283.222290 369.959351,283.909454 
	C370.350861,295.963226 370.740997,308.017853 370.994110,320.075165 
	C371.386383,338.759338 371.625427,357.446747 372.033905,376.130524 
	C372.179993,382.811920 372.629517,389.486694 372.887939,396.592407 
z"/>
<path fill="#9CD55E" opacity="1.000000" stroke="none" 
	d="
M348.068665,697.076477 
	C349.037231,685.558044 349.979950,674.037415 350.986542,662.522278 
	C351.417480,657.592041 351.981323,652.673523 352.666992,647.393860 
	C352.142639,659.934509 351.427704,672.830566 350.733459,685.727600 
	C350.439667,691.184814 350.189331,696.644226 349.677582,702.199707 
	C348.980133,700.556641 348.524384,698.816528 348.068665,697.076477 
z"/>
<path fill="#9AD15D" opacity="1.000000" stroke="none" 
	d="
M352.584412,25.930960 
	C350.474365,41.684784 348.000519,57.523369 345.332397,73.692848 
	C347.161469,58.346195 349.178894,42.667881 351.244537,26.995914 
	C351.292389,26.632607 351.883087,26.340853 352.584412,25.930960 
z"/>
<path fill="#94CD56" opacity="1.000000" stroke="none" 
	d="
M348.053162,697.533203 
	C348.524384,698.816528 348.980133,700.556641 349.578766,702.610474 
	C348.420837,716.189819 347.120026,729.455322 345.196960,742.821289 
	C344.376404,742.868713 344.178101,742.815674 343.979797,742.762573 
	C344.964935,735.915466 346.252960,729.094971 346.856140,722.214355 
	C347.561646,714.166870 347.670197,706.067017 348.053162,697.533203 
z"/>
<path fill="#9CD55E" opacity="1.000000" stroke="none" 
	d="
M240.613190,111.059708 
	C236.810852,112.443367 232.622574,113.938744 228.334198,115.046638 
	C216.482712,118.108444 204.589432,121.008446 192.286346,123.949326 
	C198.244995,121.868500 204.577835,119.626923 211.027893,117.798889 
	C219.370987,115.434357 227.799789,113.368698 236.212433,111.256981 
	C237.477722,110.939377 238.855713,111.070869 240.613190,111.059708 
z"/>
<path fill="#94CD56" opacity="1.000000" stroke="none" 
	d="
M326.026978,549.447144 
	C326.522278,549.034241 326.949799,549.079285 327.700256,549.134033 
	C328.022705,549.518250 328.022186,549.892883 327.853149,550.800415 
	C327.794373,552.255493 327.904114,553.177490 328.013855,554.099548 
	C328.664459,565.748962 329.315002,577.398315 329.945618,589.502075 
	C329.925690,589.956421 329.508484,589.977051 329.300049,589.990234 
	C328.047424,576.637268 327.003296,563.271118 326.026978,549.447144 
z"/>
<path fill="#A1D861" opacity="1.000000" stroke="none" 
	d="
M303.668823,94.035767 
	C303.451447,94.596962 302.879303,95.370003 302.154297,95.560120 
	C290.015778,98.743103 277.858215,101.853271 265.289307,104.964828 
	C270.366028,103.119576 275.799286,101.079880 281.365234,99.510712 
	C288.602631,97.470314 295.945435,95.803802 303.668823,94.035767 
z"/>
<path fill="#9CD55E" opacity="1.000000" stroke="none" 
	d="
M360.933746,64.544006 
	C359.904510,56.044086 359.233032,47.041599 357.866882,38.145802 
	C357.183868,33.698387 355.232300,29.445793 353.496033,25.053024 
	C353.540802,24.337889 354.155121,23.058029 354.312866,23.112020 
	C355.322571,23.457636 356.794464,23.901594 357.062897,24.677126 
	C357.718018,26.569941 357.913055,28.650753 358.095215,30.673714 
	C359.097900,41.808014 360.041077,52.947674 360.933746,64.544006 
z"/>
<path fill="#9AD15D" opacity="1.000000" stroke="none" 
	d="
M344.613037,74.902740 
	C343.513672,83.511299 336.319702,84.904930 329.223877,86.931396 
	C329.525879,86.224449 330.104401,85.056145 330.924316,84.850525 
	C336.763153,83.386307 341.432251,80.455765 344.613037,74.902740 
z"/>
<path fill="#9CD55E" opacity="1.000000" stroke="none" 
	d="
M343.680969,742.605591 
	C344.178101,742.815674 344.376404,742.868713 344.874573,742.991516 
	C342.257996,745.679077 340.910675,743.319031 340.352509,741.112122 
	C338.996216,735.749390 338.078064,730.275879 337.050049,724.396606 
	C338.399872,728.536621 339.595184,733.154541 341.012421,737.703247 
	C341.531525,739.369324 342.576843,740.871582 343.680969,742.605591 
z"/>
<path fill="#A1D861" opacity="1.000000" stroke="none" 
	d="
M530.205688,543.944824 
	C536.026672,538.800171 532.390259,534.195007 529.095764,529.217163 
	C537.097656,534.638367 537.608765,539.738464 530.205688,543.944824 
z"/>
<path fill="#A1D861" opacity="1.000000" stroke="none" 
	d="
M280.585327,239.892593 
	C275.816437,243.502548 270.688843,247.175323 265.206970,250.899658 
	C266.013000,249.793839 267.027283,248.420120 268.361145,247.519928 
	C272.247742,244.896912 276.262207,242.463287 280.585327,239.892593 
z"/>
<path fill="#9CD55E" opacity="1.000000" stroke="none" 
	d="
M432.930969,621.687012 
	C431.450104,619.544861 429.760376,617.119507 428.692444,614.445862 
	C427.171600,610.638428 428.418945,607.693359 432.748108,606.094604 
	C426.889221,611.083862 431.683289,616.200623 432.930969,621.687012 
z"/>
<path fill="#9AD15D" opacity="1.000000" stroke="none" 
	d="
M544.937866,776.626709 
	C542.284912,773.158936 539.697693,769.323364 537.067017,765.113281 
	C539.683594,768.578796 542.343567,772.418884 544.937866,776.626709 
z"/>
<path fill="#9CD55E" opacity="1.000000" stroke="none" 
	d="
M464.931946,667.700012 
	C462.313995,664.560547 459.739990,661.057373 457.118286,657.193481 
	C459.705688,660.333923 462.340790,663.835083 464.931946,667.700012 
z"/>
<path fill="#9CD55E" opacity="1.000000" stroke="none" 
	d="
M457.111969,656.613708 
	C454.501068,653.468567 451.816467,649.964905 449.073730,646.100098 
	C451.689819,649.244324 454.364044,652.749695 457.111969,656.613708 
z"/>
<path fill="#94CD56" opacity="1.000000" stroke="none" 
	d="
M201.072968,148.268463 
	C203.675903,150.432053 206.244690,152.948730 208.865356,155.811676 
	C206.291077,153.645828 203.664948,151.133682 201.072968,148.268463 
z"/>
<path fill="#A1D861" opacity="1.000000" stroke="none" 
	d="
M393.077759,415.600647 
	C390.502380,413.795410 387.833923,411.656616 385.115417,409.171417 
	C387.705139,410.972382 390.344879,413.119720 393.077759,415.600647 
z"/>
<path fill="#A1D861" opacity="1.000000" stroke="none" 
	d="
M456.619690,546.907104 
	C454.452698,549.124146 451.942810,551.430969 449.098206,553.857910 
	C451.267914,551.651001 453.772400,549.323914 456.619690,546.907104 
z"/>
<path fill="#A1D861" opacity="1.000000" stroke="none" 
	d="
M529.029785,528.618408 
	C526.525085,526.777039 523.912964,524.611877 521.163879,522.131531 
	C523.658752,523.975769 526.290466,526.135193 529.029785,528.618408 
z"/>
<path fill="#94CD56" opacity="1.000000" stroke="none" 
	d="
M208.921448,156.422379 
	C211.439285,158.239182 214.035919,160.393982 216.781799,162.850952 
	C214.287430,161.022202 211.643829,158.891296 208.921448,156.422379 
z"/>
<path fill="#9AD15D" opacity="1.000000" stroke="none" 
	d="
M472.436249,579.091248 
	C474.875183,577.460632 477.700134,575.789062 480.897980,574.070740 
	C478.454681,575.699402 475.638458,577.374878 472.436249,579.091248 
z"/>
<path fill="#9AD15D" opacity="1.000000" stroke="none" 
	d="
M535.393311,761.326782 
	C533.396729,759.281982 531.266113,756.913208 529.092651,754.184265 
	C531.119690,756.217041 533.189453,758.609924 535.393311,761.326782 
z"/>
<path fill="#9AD15D" opacity="1.000000" stroke="none" 
	d="
M216.576385,282.900024 
	C214.502747,284.540680 212.076797,286.242371 209.269653,287.942078 
	C211.333679,286.280426 213.778885,284.620728 216.576385,282.900024 
z"/>
<path fill="#9AD15D" opacity="1.000000" stroke="none" 
	d="
M521.397705,550.062439 
	C523.549133,548.173767 526.056152,546.219177 528.899536,544.141602 
	C526.741699,546.011230 524.247498,548.003845 521.397705,550.062439 
z"/>
<path fill="#9CD55E" opacity="1.000000" stroke="none" 
	d="
M192.939789,140.399811 
	C195.206604,142.128098 197.570343,144.188339 200.039734,146.574554 
	C197.775833,144.844299 195.406281,142.788025 192.939789,140.399811 
z"/>
<path fill="#9AD15D" opacity="1.000000" stroke="none" 
	d="
M208.618408,287.964417 
	C206.465729,289.894165 203.969727,291.905975 201.106674,293.981964 
	C203.251450,292.046234 205.763275,290.046356 208.618408,287.964417 
z"/>
<path fill="#9CD55E" opacity="1.000000" stroke="none" 
	d="
M393.095947,471.225952 
	C395.629150,472.440613 398.139740,474.011566 400.817871,475.888397 
	C398.348114,474.656891 395.710754,473.119537 393.095947,471.225952 
z"/>
<path fill="#9CD55E" opacity="1.000000" stroke="none" 
	d="
M400.914886,476.406128 
	C403.457123,477.891663 406.077026,479.716705 408.837097,481.859741 
	C406.315674,480.367065 403.654083,478.556335 400.914886,476.406128 
z"/>
<path fill="#9AD15D" opacity="1.000000" stroke="none" 
	d="
M224.614471,277.815735 
	C222.507477,279.430939 220.036987,281.144684 217.205048,282.890656 
	C219.312744,281.253357 221.781860,279.583801 224.614471,277.815735 
z"/>
<path fill="#A1D861" opacity="1.000000" stroke="none" 
	d="
M400.858093,421.751862 
	C398.341492,420.206512 395.828644,418.315277 393.167084,416.110718 
	C395.632874,417.666931 398.247375,419.536438 400.858093,421.751862 
z"/>
<path fill="#A1D861" opacity="1.000000" stroke="none" 
	d="
M463.768951,541.076782 
	C461.932190,543.028259 459.735748,544.942261 457.186493,546.892273 
	C459.025574,544.965271 461.217407,543.002319 463.768951,541.076782 
z"/>
<path fill="#9CD55E" opacity="1.000000" stroke="none" 
	d="
M408.992615,427.622498 
	C406.537567,426.425964 403.946167,424.917908 401.188477,423.104736 
	C403.633514,424.303436 406.244934,425.807190 408.992615,427.622498 
z"/>
<path fill="#9CD55E" opacity="1.000000" stroke="none" 
	d="
M384.878601,465.362244 
	C387.116058,466.441803 389.464203,467.854645 391.953430,469.572266 
	C389.726105,468.483185 387.357697,467.089325 384.878601,465.362244 
z"/>
<path fill="#9AD15D" opacity="1.000000" stroke="none" 
	d="
M513.395508,554.157227 
	C515.467285,552.847534 517.909790,551.454529 520.736694,550.063721 
	C518.669434,551.401978 516.217896,552.738037 513.395508,554.157227 
z"/>
<path fill="#9AD15D" opacity="1.000000" stroke="none" 
	d="
M482.215210,573.946289 
	C484.050812,572.317688 486.257385,570.733459 488.815704,569.097351 
	C486.973694,570.693848 484.779938,572.342285 482.215210,573.946289 
z"/>
<path fill="#9CD55E" opacity="1.000000" stroke="none" 
	d="
M408.972900,482.385742 
	C411.448456,483.564880 414.051971,485.063049 416.817291,486.866089 
	C414.353027,485.682220 411.726959,484.193481 408.972900,482.385742 
z"/>
<path fill="#A1D861" opacity="1.000000" stroke="none" 
	d="
M285.607056,236.483505 
	C284.457153,237.567230 282.997101,238.719803 281.187134,239.902603 
	C282.323822,238.806000 283.810394,237.679169 285.607056,236.483505 
z"/>
<path fill="#9CD55E" opacity="1.000000" stroke="none" 
	d="
M414.278046,431.221436 
	C412.710175,430.510712 410.941589,429.542877 409.111084,428.219666 
	C410.725250,428.897644 412.401276,429.930969 414.278046,431.221436 
z"/>
<path fill="#9CD55E" opacity="1.000000" stroke="none" 
	d="
M416.933960,434.651611 
	C416.064392,434.022949 415.264191,433.058319 414.441711,431.766052 
	C415.280731,432.397522 416.142029,433.356598 416.933960,434.651611 
z"/>
<path fill="#9AD15D" opacity="1.000000" stroke="none" 
	d="
M536.877319,763.794128 
	C536.366333,763.468506 535.875366,762.833008 535.416504,761.876221 
	C535.931458,762.197998 536.414368,762.841125 536.877319,763.794128 
z"/>
<path fill="#A1D861" opacity="1.000000" stroke="none" 
	d="
M308.596252,92.869064 
	C307.823700,93.191170 306.672333,93.597527 305.136810,93.990608 
	C305.907562,93.636002 307.062531,93.294662 308.596252,92.869064 
z"/>
<path fill="#9CD55E" opacity="1.000000" stroke="none" 
	d="
M248.705276,109.049004 
	C248.207642,109.400925 247.340561,109.685944 246.123932,109.967911 
	C246.628189,109.637276 247.482010,109.309692 248.705276,109.049004 
z"/>
<path fill="#9CD55E" opacity="1.000000" stroke="none" 
	d="
M244.691193,110.029457 
	C244.198074,110.389587 243.336105,110.684799 242.124161,110.978287 
	C242.623581,110.639221 243.472977,110.301880 244.691193,110.029457 
z"/>
<path fill="#9CD55E" opacity="1.000000" stroke="none" 
	d="
M188.722260,125.028526 
	C188.510895,125.347214 187.967926,125.605186 187.123505,125.906151 
	C187.344940,125.622032 187.867798,125.294914 188.722260,125.028526 
z"/>
<path fill="#9CD55E" opacity="1.000000" stroke="none" 
	d="
M191.696960,123.901413 
	C191.494919,124.187782 190.957809,124.520241 190.104614,124.909271 
	C190.312988,124.626389 190.837433,124.286942 191.696960,123.901413 
z"/>
<path fill="#9CD55E" opacity="1.000000" stroke="none" 
	d="
M433.266235,606.015869 
	C433.223877,605.830078 433.457947,605.574036 433.892487,605.156433 
	C433.909515,605.311768 433.726074,605.628662 433.266235,606.015869 
z"/>
<path fill="#9CD55E" opacity="1.000000" stroke="none" 
	d="
M189.982391,137.271271 
	C190.168198,137.230392 190.424042,137.467545 190.845215,137.906662 
	C190.691177,137.922180 190.371796,137.735733 189.982391,137.271271 
z"/>
<path fill="#9CD55E" opacity="1.000000" stroke="none" 
	d="
M434.273438,605.030029 
	C434.231995,604.841919 434.472565,604.585022 434.914948,604.158936 
	C434.929657,604.313599 434.742554,604.637390 434.273438,605.030029 
z"/>
<path fill="#9CD55E" opacity="1.000000" stroke="none" 
	d="
M435.272400,604.034790 
	C435.249939,603.849304 435.513306,603.593506 436.005432,603.179321 
	C436.008850,603.335510 435.783508,603.649963 435.272400,604.034790 
z"/>
<path fill="#A1D861" opacity="1.000000" stroke="none" 
	d="
M383.068207,406.725525 
	C382.880493,406.833649 382.599884,406.658569 382.150421,406.295380 
	C382.303009,406.234619 382.634247,406.346344 383.068207,406.725525 
z"/>
<path fill="#A1D861" opacity="1.000000" stroke="none" 
	d="
M384.046082,407.738464 
	C383.867462,407.772827 383.603851,407.524719 383.158936,407.076050 
	C383.305450,407.068939 383.633240,407.262451 384.046082,407.738464 
z"/>
<path fill="#9CD55E" opacity="1.000000" stroke="none" 
	d="
M189.077667,136.184982 
	C189.316879,136.154678 189.530472,136.419724 189.866547,136.908051 
	C189.676697,136.914337 189.364349,136.697327 189.077667,136.184982 
z"/>
<path fill="#A1D861" opacity="1.000000" stroke="none" 
	d="
M385.019470,408.730865 
	C384.835022,408.766174 384.582977,408.518280 384.154724,408.072388 
	C384.302917,408.065491 384.627411,408.256592 385.019470,408.730865 
z"/>
<path fill="#9CD55E" opacity="1.000000" stroke="none" 
	d="
M191.951462,139.276672 
	C192.142990,139.228256 192.410110,139.462189 192.842682,139.904205 
	C192.681091,139.927872 192.354080,139.743469 191.951462,139.276672 
z"/>
<path fill="#9CD55E" opacity="1.000000" stroke="none" 
	d="
M190.968109,138.265289 
	C191.149155,138.222260 191.407425,138.455078 191.836060,138.884995 
	C191.686050,138.901779 191.365677,138.721451 190.968109,138.265289 
z"/>
<path fill="#010100" opacity="0.000000" stroke="none" 
	d="
M319.197174,128.029434 
	C319.197174,128.029434 319.597351,128.011215 320.253540,128.018524 
	C326.258698,128.071777 331.607697,128.117691 336.956696,128.163605 
	C336.956696,128.163605 337.046967,128.045776 337.021301,128.473068 
	C337.040985,137.595551 337.086334,146.290741 337.057861,155.415558 
	C336.394653,160.010651 335.663635,164.161972 335.245911,168.344589 
	C334.438904,176.424942 334.024811,184.549179 333.047058,192.606598 
	C331.974030,201.449188 330.448914,210.236923 329.120789,219.048553 
	C329.120789,219.048553 329.009766,219.478119 328.615326,219.734314 
	C324.467255,221.633041 320.713623,223.275574 316.959991,224.918121 
	C316.959991,224.918121 317.042267,225.015015 316.909760,224.663177 
	C315.836761,224.164474 314.896271,224.017578 313.955780,223.870697 
	C313.955780,223.870697 314.011566,223.999817 313.921021,223.682159 
	C313.204132,223.277466 312.577759,223.190445 311.951416,223.103409 
	C311.247467,222.720947 310.543518,222.338501 309.405762,221.697296 
	C308.657440,221.220886 308.342957,221.003235 308.028473,220.785599 
	C308.011749,220.481964 307.874451,220.249573 307.252625,219.737366 
	C306.251190,219.219482 305.613739,219.052643 304.976257,218.885803 
	C304.976257,218.885818 305.041565,218.999222 305.006622,218.634064 
	C302.323578,216.446243 299.675507,214.623596 297.027405,212.800949 
	C297.027405,212.800949 297.036285,212.936417 297.017822,212.595139 
	C294.621979,210.543472 292.244598,208.833084 289.867249,207.122696 
	C285.535065,203.401993 281.160278,199.729553 276.880249,195.949768 
	C269.641724,189.557297 262.503479,183.050949 255.243134,176.683609 
	C251.331345,173.252945 247.253616,170.011505 243.105682,166.097168 
	C242.646378,165.294235 242.332169,165.078796 242.017960,164.863358 
	C242.017960,164.863358 241.982834,164.967514 241.971573,164.704407 
	C241.638214,164.259109 241.316132,164.076920 240.994049,163.894714 
	C240.994049,163.894714 241.056046,163.994324 241.007599,163.634766 
	C238.329758,160.797073 235.700348,158.318954 233.070953,155.840836 
	C233.070953,155.840836 233.053253,155.966446 233.041199,155.583069 
	C232.893127,152.994568 232.757111,150.789413 232.621109,148.584274 
	C232.621109,148.584274 232.554031,148.175552 232.671005,148.180099 
	C232.900360,147.807678 233.012756,147.430710 233.125122,147.053741 
	C240.858963,145.094345 248.592789,143.134964 257.121704,141.088837 
	C260.212769,140.785339 262.553162,140.782013 264.797211,140.315369 
	C275.207764,138.150543 285.606293,135.922089 295.978149,133.579346 
	C300.400360,132.580490 304.746979,131.246750 309.127930,130.065186 
	C309.127930,130.065170 309.017792,130.003510 309.388916,130.027542 
	C311.219177,129.725739 312.678345,129.399887 314.137512,129.074036 
	C314.137512,129.074036 314.034332,128.999207 314.404175,129.025604 
	C316.248383,128.711136 317.722778,128.370285 319.197174,128.029434 
z"/>
<path fill="#010200" opacity="0.000000" stroke="none" 
	d="
M273.922028,335.123474 
	C273.584351,335.040680 273.313782,334.858307 272.994995,333.999878 
	C270.258118,331.896759 267.636536,330.370117 265.014984,328.843475 
	C265.014984,328.843475 265.032928,328.948944 264.945923,328.625977 
	C262.254150,326.818695 259.649323,325.334442 257.044525,323.850159 
	C257.044525,323.850159 257.040131,323.948425 256.945892,323.657898 
	C256.242828,323.169037 255.634018,322.970764 255.025192,322.772491 
	C251.317337,320.175079 247.609482,317.577637 243.434448,314.714172 
	C242.641113,314.272247 242.314987,314.096313 241.988861,313.920410 
	C241.988861,313.920410 241.993790,314.011719 241.973450,313.732056 
	C241.633484,313.274414 241.313873,313.096466 240.994263,312.918518 
	C240.994263,312.918518 241.054337,313.008789 241.005676,312.681274 
	C240.343307,311.833405 239.729584,311.313019 239.115860,310.792633 
	C239.115860,310.792633 239.115280,310.886108 238.991058,310.573730 
	C239.326157,308.223907 239.785477,306.186462 240.244797,304.149048 
	C240.244797,304.149048 240.145920,304.145844 240.415146,304.010925 
	C240.869141,303.257690 241.053925,302.639374 241.238678,302.021088 
	C255.246994,291.259766 269.284241,280.535828 283.254700,269.725586 
	C294.892212,260.720581 306.391815,251.536041 318.101685,242.627167 
	C320.140594,241.075943 322.920166,240.498230 326.081390,239.466919 
	C328.085754,241.128738 330.214386,242.676254 330.466766,244.485474 
	C330.960846,248.027710 330.411621,251.716003 330.288605,255.343658 
	C329.908325,266.557800 329.525421,277.771881 329.143494,288.985962 
	C329.143494,288.985962 329.013763,289.409210 328.600983,289.750549 
	C327.848541,290.794250 327.258423,291.478302 327.205658,292.201538 
	C325.725800,312.471466 324.300293,332.745300 322.865906,353.018524 
	C322.260834,355.695129 321.655762,358.371735 320.983734,361.344513 
	C315.429810,358.753906 310.670380,356.533905 305.467010,353.814789 
	C302.370239,351.819336 299.717407,350.322968 297.064575,348.826599 
	C297.064575,348.826599 297.064972,348.921448 297.009521,348.601685 
	C295.294342,347.215942 293.634552,346.149994 291.749634,344.841309 
	C290.687347,344.347168 289.850189,344.095764 289.013031,343.844360 
	C289.013031,343.844360 289.033295,343.949005 288.959717,343.616638 
	C286.262939,341.807526 283.639740,340.330750 281.016571,338.854004 
	C281.016571,338.854004 281.026611,338.965179 280.979858,338.673004 
	C280.453644,338.027313 279.974213,337.673767 279.494781,337.320221 
	C279.383789,337.539398 279.272827,337.758575 279.100342,337.434265 
	C278.155640,336.390533 277.272430,335.890228 276.389221,335.389923 
	C276.389221,335.389923 276.300232,335.438293 276.068848,335.278809 
	C275.198975,335.120728 274.560516,335.122101 273.922028,335.123474 
z"/>
<path fill="#9AD15D" opacity="1.000000" stroke="none" 
	d="
M323.212555,352.842590 
	C324.300293,332.745300 325.725800,312.471466 327.205658,292.201538 
	C327.258423,291.478302 327.848541,290.794250 328.574585,289.970337 
	C328.073700,302.196655 327.168365,314.543335 326.306244,326.893005 
	C325.834686,333.647980 325.512878,340.414368 324.954865,347.161652 
	C324.800964,349.022400 324.041077,350.833008 323.212555,352.842590 
z"/>
<path fill="#9AD15D" opacity="1.000000" stroke="none" 
	d="
M329.356201,218.785522 
	C330.448914,210.236923 331.974030,201.449188 333.047058,192.606598 
	C334.024811,184.549179 334.438904,176.424942 335.245911,168.344589 
	C335.663635,164.161972 336.394653,160.010651 337.266418,155.435974 
	C337.548737,155.026764 337.966827,155.055283 337.966827,155.055283 
	C336.200470,173.440140 334.530304,191.835281 332.566986,210.199081 
	C332.262512,213.047028 330.616974,215.751602 329.356201,218.785522 
z"/>
<path fill="#9AD15D" opacity="1.000000" stroke="none" 
	d="
M329.328491,288.636841 
	C329.525421,277.771881 329.908325,266.557800 330.288605,255.343658 
	C330.411621,251.716003 330.960846,248.027710 330.466766,244.485474 
	C330.214386,242.676254 328.085754,241.128738 326.388977,239.319809 
	C328.901306,236.318710 330.293243,239.470016 331.203064,241.031464 
	C332.315826,242.941147 332.962250,245.499847 332.808746,247.708313 
	C331.867798,261.245728 330.643463,274.763428 329.328491,288.636841 
z"/>
<path fill="#9CD55E" opacity="1.000000" stroke="none" 
	d="
M308.687988,130.042938 
	C304.746979,131.246750 300.400360,132.580490 295.978149,133.579346 
	C285.606293,135.922089 275.207764,138.150543 264.797211,140.315369 
	C262.553162,140.782013 260.212769,140.785339 257.482574,140.923813 
	C274.114960,137.237259 291.181519,133.628983 308.687988,130.042938 
z"/>
<path fill="#9CD55E" opacity="1.000000" stroke="none" 
	d="
M336.802155,127.804428 
	C331.607697,128.117691 326.258698,128.071777 320.443481,127.954987 
	C325.498505,126.388237 331.003693,124.281982 336.802155,127.804428 
z"/>
<path fill="#A9E964" opacity="1.000000" stroke="none" 
	d="
M337.982178,154.580994 
	C337.966827,155.055283 337.548737,155.026764 337.340210,155.006348 
	C337.086334,146.290741 337.040985,137.595551 336.962677,128.427597 
	C337.293610,132.191422 337.810211,136.421906 337.979675,140.666229 
	C338.158325,145.139496 338.005524,149.625977 337.982178,154.580994 
z"/>
<path fill="#A1D861" opacity="1.000000" stroke="none" 
	d="
M317.266724,225.113892 
	C320.713623,223.275574 324.467255,221.633041 328.583679,219.953888 
	C326.761505,224.294128 322.946259,226.103104 317.266724,225.113892 
z"/>
<path fill="#9CD55E" opacity="1.000000" stroke="none" 
	d="
M233.111206,156.191101 
	C235.700348,158.318954 238.329758,160.797073 241.057312,163.603607 
	C238.487457,161.468460 235.819458,159.004929 233.111206,156.191101 
z"/>
<path fill="#9CD55E" opacity="1.000000" stroke="none" 
	d="
M297.174988,213.115906 
	C299.675507,214.623596 302.323578,216.446243 305.063232,218.601288 
	C302.544067,217.099411 299.933350,215.265137 297.174988,213.115906 
z"/>
<path fill="#9AD15D" opacity="1.000000" stroke="none" 
	d="
M297.156036,349.159485 
	C299.717407,350.322968 302.370239,351.819336 305.153870,353.650482 
	C302.605591,352.487640 299.926544,350.989990 297.156036,349.159485 
z"/>
<path fill="#A1D861" opacity="1.000000" stroke="none" 
	d="
M257.127686,324.189880 
	C259.649323,325.334442 262.254150,326.818695 264.998535,328.616333 
	C262.495697,327.463013 259.853271,325.996307 257.127686,324.189880 
z"/>
<path fill="#9CD55E" opacity="1.000000" stroke="none" 
	d="
M290.002625,207.428497 
	C292.244598,208.833084 294.621979,210.543472 297.085480,212.589951 
	C294.827087,211.195465 292.482574,209.464890 290.002625,207.428497 
z"/>
<path fill="#A1D861" opacity="1.000000" stroke="none" 
	d="
M281.160889,339.171021 
	C283.639740,340.330750 286.262939,341.807526 289.011902,343.605865 
	C286.526825,342.447632 283.916016,340.967804 281.160889,339.171021 
z"/>
<path fill="#A1D861" opacity="1.000000" stroke="none" 
	d="
M265.156250,329.160767 
	C267.636536,330.370117 270.258118,331.896759 272.872498,333.783264 
	C270.342743,332.588104 267.820099,331.033081 265.156250,329.160767 
z"/>
<path fill="#A1D861" opacity="1.000000" stroke="none" 
	d="
M239.886902,304.171326 
	C239.785477,306.186462 239.326157,308.223907 239.037781,310.572327 
	C235.171936,308.718689 235.234985,307.401764 239.886902,304.171326 
z"/>
<path fill="#9CD55E" opacity="1.000000" stroke="none" 
	d="
M232.263000,148.627441 
	C232.757111,150.789413 232.893127,152.994568 233.104080,155.591278 
	C230.788223,153.888016 228.064713,151.851166 232.263000,148.627441 
z"/>
<path fill="#9AD15D" opacity="1.000000" stroke="none" 
	d="
M291.974792,345.084015 
	C293.634552,346.149994 295.294342,347.215942 297.056946,348.600403 
	C295.563354,348.145569 293.966888,347.372253 292.173950,346.081482 
	C291.977448,345.564026 291.974792,345.084015 291.974792,345.084015 
z"/>
<path fill="#9CD55E" opacity="1.000000" stroke="none" 
	d="
M313.743713,129.045273 
	C312.678345,129.399887 311.219177,129.725739 309.358154,130.082657 
	C310.420837,129.747986 311.885376,129.382248 313.743713,129.045273 
z"/>
<path fill="#9CD55E" opacity="1.000000" stroke="none" 
	d="
M318.797943,128.012634 
	C317.722778,128.370285 316.248383,128.711136 314.366791,129.077225 
	C315.439301,128.733582 316.919006,128.364700 318.797943,128.012634 
z"/>
<path fill="#A1D861" opacity="1.000000" stroke="none" 
	d="
M291.749634,344.841309 
	C291.974792,345.084015 291.977448,345.564026 291.983063,345.804565 
	C291.091583,345.507202 290.194489,344.969269 289.155212,344.137878 
	C289.850189,344.095764 290.687347,344.347168 291.749634,344.841309 
z"/>
<path fill="#A1D861" opacity="1.000000" stroke="none" 
	d="
M276.472870,335.744568 
	C277.272430,335.890228 278.155640,336.390533 279.259766,337.103149 
	C278.505951,336.910095 277.531219,336.504669 276.472870,335.744568 
z"/>
<path fill="#A1D861" opacity="1.000000" stroke="none" 
	d="
M239.175201,311.113708 
	C239.729584,311.313019 240.343307,311.833405 241.050781,312.651184 
	C240.507858,312.443970 239.871185,311.939362 239.175201,311.113708 
z"/>
<path fill="#A1D861" opacity="1.000000" stroke="none" 
	d="
M314.226105,224.087753 
	C314.896271,224.017578 315.836761,224.164474 316.958282,224.622131 
	C316.258362,224.723557 315.377380,224.514191 314.226105,224.087753 
z"/>
<path fill="#A9E964" opacity="1.000000" stroke="none" 
	d="
M328.018005,553.692017 
	C327.904114,553.177490 327.794373,552.255493 327.851318,551.082825 
	C328.019409,551.649597 328.020782,552.467041 328.018005,553.692017 
z"/>
<path fill="#9CD55E" opacity="1.000000" stroke="none" 
	d="
M305.211578,219.099060 
	C305.613739,219.052643 306.251190,219.219482 307.050659,219.683105 
	C306.624054,219.757355 306.035461,219.534821 305.211578,219.099060 
z"/>
<path fill="#A1D861" opacity="1.000000" stroke="none" 
	d="
M279.585541,337.622559 
	C279.974213,337.673767 280.453644,338.027313 281.035400,338.667542 
	C280.650574,338.611115 280.163422,338.268005 279.585541,337.622559 
z"/>
<path fill="#A1D861" opacity="1.000000" stroke="none" 
	d="
M274.191742,335.295776 
	C274.560516,335.122101 275.198975,335.120728 276.094299,335.322601 
	C275.721252,335.506592 275.091339,335.487305 274.191742,335.295776 
z"/>
<path fill="#A1D861" opacity="1.000000" stroke="none" 
	d="
M255.243622,322.994690 
	C255.634018,322.970764 256.242828,323.169037 256.995056,323.659424 
	C256.579620,323.706665 256.020813,323.461792 255.243622,322.994690 
z"/>
<path fill="#A1D861" opacity="1.000000" stroke="none" 
	d="
M312.189545,223.284729 
	C312.577759,223.190445 313.204132,223.277466 313.985535,223.654205 
	C313.569641,223.784622 312.998657,223.625336 312.189545,223.284729 
z"/>
<path fill="#A1D861" opacity="1.000000" stroke="none" 
	d="
M241.011368,302.247864 
	C241.053925,302.639374 240.869141,303.257690 240.415710,304.060364 
	C240.359390,303.654694 240.571716,303.064667 241.011368,302.247864 
z"/>
<path fill="#9CD55E" opacity="1.000000" stroke="none" 
	d="
M241.156815,164.098206 
	C241.316132,164.076920 241.638214,164.259109 242.023636,164.722015 
	C241.831161,164.769043 241.575363,164.535370 241.156815,164.098206 
z"/>
<path fill="#9CD55E" opacity="1.000000" stroke="none" 
	d="
M308.197693,221.009949 
	C308.342957,221.003235 308.657440,221.220886 309.093018,221.704071 
	C308.931732,221.724518 308.649323,221.479416 308.197693,221.009949 
z"/>
<path fill="#9CD55E" opacity="1.000000" stroke="none" 
	d="
M242.135254,165.087402 
	C242.332169,165.078796 242.646378,165.294235 242.922485,165.805725 
	C242.673752,165.838318 242.463150,165.574875 242.135254,165.087402 
z"/>
<path fill="#9CD55E" opacity="1.000000" stroke="none" 
	d="
M232.960205,147.248520 
	C233.012756,147.430710 232.900360,147.807678 232.466339,148.211716 
	C232.361557,147.973633 232.578430,147.708466 232.960205,147.248520 
z"/>
<path fill="#A1D861" opacity="1.000000" stroke="none" 
	d="
M241.154617,313.120972 
	C241.313873,313.096466 241.633484,313.274414 242.019104,313.729736 
	C241.828400,313.779175 241.571686,313.551300 241.154617,313.120972 
z"/>
<path fill="#A1D861" opacity="1.000000" stroke="none" 
	d="
M242.168243,314.120728 
	C242.314987,314.096313 242.641113,314.272247 243.084122,314.712524 
	C242.916550,314.758240 242.632080,314.539612 242.168243,314.120728 
z"/>
</svg>